<svg xmlns="http://www.w3.org/2000/svg" xmlns:xlink="http://www.w3.org/1999/xlink" width="26" height="25" viewBox="0 0 26 25"><defs><clipPath id="a"><rect width="26" height="25" fill="none"/></clipPath></defs><g clip-path="url(#a)"><g transform="translate(-109 -14)"><circle cx="2.5" cy="2.5" r="2.5" transform="translate(109 14)" fill="#1c1c1c"/></g><g transform="translate(-99 -14)"><circle cx="2.5" cy="2.5" r="2.5" transform="translate(109 14)" fill="#1c1c1c"/></g><g transform="translate(-89 -14)"><circle cx="2.5" cy="2.5" r="2.5" transform="translate(109 14)" fill="#1c1c1c"/></g><g transform="translate(-109 -4)"><circle cx="2.5" cy="2.5" r="2.5" transform="translate(109 14)" fill="#1c1c1c"/></g><g transform="translate(-99 -4)"><circle cx="2.5" cy="2.5" r="2.5" transform="translate(109 14)" fill="#1c1c1c"/></g><g transform="translate(-89 -4)"><circle cx="2.5" cy="2.5" r="2.5" transform="translate(109 14)" fill="#1c1c1c"/></g><g transform="translate(-109 6)"><circle cx="2.5" cy="2.5" r="2.5" transform="translate(109 14)" fill="#1c1c1c"/></g><g transform="translate(-99 6)"><circle cx="2.5" cy="2.5" r="2.5" transform="translate(109 14)" fill="#1c1c1c"/></g><g transform="translate(-89 6)"><circle cx="2.5" cy="2.5" r="2.5" transform="translate(109 14)" fill="#1c1c1c"/></g></g></svg>