<svg xmlns="http://www.w3.org/2000/svg" width="12.963" height="10.534" viewBox="0 0 12.963 10.534"><path d="M12.962,4.245a5.323,5.323,0,0,1-1.528.419A2.67,2.67,0,0,0,12.6,3.192a5.327,5.327,0,0,1-1.689.645A2.662,2.662,0,0,0,6.383,6.263,7.551,7.551,0,0,1,.9,3.484a2.662,2.662,0,0,0,.823,3.551A2.649,2.649,0,0,1,.52,6.7c0,.011,0,.022,0,.034A2.661,2.661,0,0,0,2.653,9.344a2.665,2.665,0,0,1-1.2.045,2.662,2.662,0,0,0,2.484,1.847,5.336,5.336,0,0,1-3.3,1.138A5.378,5.378,0,0,1,0,12.337a7.526,7.526,0,0,0,4.077,1.195,7.515,7.515,0,0,0,7.566-7.567q0-.173-.008-.344a5.406,5.406,0,0,0,1.327-1.376Z" transform="translate(0.001 -2.998)" fill="#1c1c1c"/></svg>